<svg xmlns="http://www.w3.org/2000/svg" xmlns:xlink="http://www.w3.org/1999/xlink" width="300" zoomAndPan="magnify" viewBox="0 0 300 443.249995" height="443.249995" preserveAspectRatio="xMidYMid meet" version="1.0"><defs><g/><clipPath id="id1"><path d="M 0.253906 0 L 299.746094 0 L 299.746094 442.5 L 0.253906 442.5 Z M 0.253906 0 " clip-rule="nonzero"/></clipPath><clipPath id="id2"><path d="M 0.253906 128 L 42 128 L 42 192 L 0.253906 192 Z M 0.253906 128 " clip-rule="nonzero"/></clipPath><clipPath id="id3"><path d="M 0.253906 113.40625 L 56 113.40625 L 56 206 L 0.253906 206 Z M 0.253906 113.40625 " clip-rule="nonzero"/></clipPath><clipPath id="id4"><path d="M 0.253906 117 L 53 117 L 53 203 L 0.253906 203 Z M 0.253906 117 " clip-rule="nonzero"/></clipPath><clipPath id="id5"><path d="M 0.253906 364 L 42 364 L 42 428 L 0.253906 428 Z M 0.253906 364 " clip-rule="nonzero"/></clipPath><clipPath id="id6"><path d="M 0.253906 350.054688 L 56 350.054688 L 56 442.5 L 0.253906 442.5 Z M 0.253906 350.054688 " clip-rule="nonzero"/></clipPath><clipPath id="id7"><path d="M 0.253906 354 L 53 354 L 53 439 L 0.253906 439 Z M 0.253906 354 " clip-rule="nonzero"/></clipPath><clipPath id="id8"><path d="M 0.253906 21 L 52 21 L 52 92 L 0.253906 92 Z M 0.253906 21 " clip-rule="nonzero"/></clipPath><clipPath id="id9"><path d="M -38.625 93.996094 L -24.332031 4.53125 L 65.128906 18.824219 L 50.839844 108.285156 Z M -38.625 93.996094 " clip-rule="nonzero"/></clipPath><clipPath id="id10"><path d="M -38.625 93.996094 L -24.332031 4.53125 L 65.128906 18.824219 L 50.839844 108.285156 Z M -38.625 93.996094 " clip-rule="nonzero"/></clipPath><clipPath id="id11"><path d="M 0.253906 240 L 53 240 L 53 311 L 0.253906 311 Z M 0.253906 240 " clip-rule="nonzero"/></clipPath><clipPath id="id12"><path d="M -23.933594 327.355469 L -37.324219 237.753906 L 52.277344 224.363281 L 65.667969 313.964844 Z M -23.933594 327.355469 " clip-rule="nonzero"/></clipPath><clipPath id="id13"><path d="M -23.933594 327.355469 L -37.324219 237.753906 L 52.277344 224.363281 L 65.667969 313.964844 Z M -23.933594 327.355469 " clip-rule="nonzero"/></clipPath></defs><g clip-path="url(#id1)"><path fill="rgb(100%, 100%, 100%)" d="M 0.253906 0 L 299.746094 0 L 299.746094 449.988281 L 0.253906 449.988281 Z M 0.253906 0 " fill-opacity="1" fill-rule="nonzero"/><path fill="rgb(100%, 100%, 100%)" d="M 0.253906 0 L 299.746094 0 L 299.746094 442.5 L 0.253906 442.5 Z M 0.253906 0 " fill-opacity="1" fill-rule="nonzero"/><path fill="rgb(19.219971%, 19.60907%, 17.649841%)" d="M 0.253906 0 L 299.746094 0 L 299.746094 442.5 L 0.253906 442.5 Z M 0.253906 0 " fill-opacity="1" fill-rule="nonzero"/></g><g fill="rgb(93.728638%, 42.349243%, 0%)" fill-opacity="1"><g transform="translate(125.058383, 213.014568)"><g><path d="M 10.253906 -25.503906 L 9.65625 -27.769531 L 9.257812 -27.769531 L 9.257812 0 L 2.664062 0 L 2.664062 -48.945312 L 9.054688 -48.945312 L 16.046875 -23.441406 L 16.648438 -21.175781 L 17.046875 -21.175781 L 17.046875 -48.945312 L 23.640625 -48.945312 L 23.640625 0 L 17.246094 0 Z M 10.253906 -25.503906 "/></g></g></g><g fill="rgb(93.728638%, 42.349243%, 0%)" fill-opacity="1"><g transform="translate(151.361619, 213.014568)"><g><path d="M 21.375 -10.054688 C 21.308594 -8.058594 20.910156 -6.257812 20.175781 -4.726562 C 19.578125 -3.394531 18.644531 -2.132812 17.3125 -1.132812 C 15.980469 -0.0664062 14.183594 0.53125 11.785156 0.53125 C 9.390625 0.53125 7.523438 -0.0664062 6.191406 -1.132812 C 4.859375 -2.132812 3.996094 -3.394531 3.394531 -4.726562 C 2.664062 -6.257812 2.265625 -8.058594 2.199219 -10.054688 L 2.199219 -38.890625 C 2.265625 -40.820312 2.664062 -42.617188 3.394531 -44.152344 C 3.996094 -45.484375 4.859375 -46.8125 6.191406 -47.8125 C 7.523438 -48.8125 9.390625 -49.476562 11.785156 -49.476562 C 14.183594 -49.476562 15.980469 -48.8125 17.3125 -47.8125 C 18.644531 -46.8125 19.578125 -45.484375 20.175781 -44.152344 C 20.910156 -42.617188 21.308594 -40.820312 21.375 -38.890625 Z M 14.183594 -38.890625 C 14.183594 -40.222656 13.917969 -41.152344 13.25 -41.953125 C 12.917969 -42.285156 12.386719 -42.484375 11.785156 -42.484375 C 10.523438 -42.484375 9.921875 -41.554688 9.65625 -40.6875 C 9.457031 -40.15625 9.390625 -39.554688 9.390625 -38.890625 L 9.390625 -10.054688 C 9.390625 -8.65625 9.722656 -7.726562 10.386719 -6.992188 C 10.722656 -6.660156 11.1875 -6.460938 11.785156 -6.460938 C 13.050781 -6.460938 13.652344 -7.257812 13.917969 -8.257812 C 14.117188 -8.722656 14.183594 -9.324219 14.183594 -10.054688 Z M 14.183594 -38.890625 "/></g></g></g><g fill="rgb(93.728638%, 42.349243%, 0%)" fill-opacity="1"><g transform="translate(82.310404, 272.913213)"><g><path d="M 2.664062 -48.945312 L 9.855469 -48.945312 C 12.984375 -48.945312 16.117188 -48.144531 18.511719 -45.882812 C 20.910156 -43.617188 22.507812 -39.890625 22.507812 -34.296875 C 22.507812 -28.703125 20.910156 -25.039062 18.511719 -22.773438 C 16.117188 -20.511719 12.984375 -19.578125 9.855469 -19.578125 L 9.855469 0 L 2.664062 0 Z M 9.855469 -26.902344 C 12.054688 -26.902344 13.453125 -27.304688 14.25 -28.433594 C 15.050781 -29.5 15.25 -31.296875 15.25 -34.027344 C 15.25 -36.757812 15.050781 -38.691406 14.25 -39.890625 C 13.453125 -41.085938 12.054688 -41.621094 9.855469 -41.621094 Z M 9.855469 -26.902344 "/></g></g></g><g fill="rgb(93.728638%, 42.349243%, 0%)" fill-opacity="1"><g transform="translate(105.750253, 272.913213)"><g><path d="M 21.375 -10.054688 C 21.308594 -8.058594 20.910156 -6.257812 20.175781 -4.726562 C 19.578125 -3.394531 18.644531 -2.132812 17.3125 -1.132812 C 15.980469 -0.0664062 14.183594 0.53125 11.785156 0.53125 C 9.390625 0.53125 7.523438 -0.0664062 6.191406 -1.132812 C 4.859375 -2.132812 3.996094 -3.394531 3.394531 -4.726562 C 2.664062 -6.257812 2.265625 -8.058594 2.199219 -10.054688 L 2.199219 -38.890625 C 2.265625 -40.820312 2.664062 -42.617188 3.394531 -44.152344 C 3.996094 -45.484375 4.859375 -46.8125 6.191406 -47.8125 C 7.523438 -48.8125 9.390625 -49.476562 11.785156 -49.476562 C 14.183594 -49.476562 15.980469 -48.8125 17.3125 -47.8125 C 18.644531 -46.8125 19.578125 -45.484375 20.175781 -44.152344 C 20.910156 -42.617188 21.308594 -40.820312 21.375 -38.890625 Z M 14.183594 -38.890625 C 14.183594 -40.222656 13.917969 -41.152344 13.25 -41.953125 C 12.917969 -42.285156 12.386719 -42.484375 11.785156 -42.484375 C 10.523438 -42.484375 9.921875 -41.554688 9.65625 -40.6875 C 9.457031 -40.15625 9.390625 -39.554688 9.390625 -38.890625 L 9.390625 -10.054688 C 9.390625 -8.65625 9.722656 -7.726562 10.386719 -6.992188 C 10.722656 -6.660156 11.1875 -6.460938 11.785156 -6.460938 C 13.050781 -6.460938 13.652344 -7.257812 13.917969 -8.257812 C 14.117188 -8.722656 14.183594 -9.324219 14.183594 -10.054688 Z M 14.183594 -38.890625 "/></g></g></g><g fill="rgb(93.728638%, 42.349243%, 0%)" fill-opacity="1"><g transform="translate(129.32328, 272.913213)"><g><path d="M 14.582031 -35.828125 C 14.582031 -37.425781 14.515625 -39.222656 14.050781 -40.621094 C 13.585938 -41.953125 12.851562 -42.886719 11.71875 -42.886719 C 9.855469 -42.820312 9.257812 -40.886719 9.257812 -38.023438 C 9.257812 -36.359375 9.988281 -34.628906 11.054688 -32.761719 C 12.121094 -30.898438 13.519531 -28.96875 14.917969 -26.902344 C 16.582031 -24.4375 18.246094 -21.910156 19.511719 -19.445312 C 20.777344 -16.980469 21.640625 -14.449219 21.640625 -11.785156 C 21.640625 -8.523438 21.109375 -5.460938 19.578125 -3.195312 C 18.046875 -0.933594 15.582031 0.53125 11.652344 0.53125 C 7.058594 0.53125 4.460938 -1.199219 2.996094 -3.863281 C 1.53125 -6.527344 1.199219 -10.054688 1.199219 -13.71875 L 8.257812 -14.382812 C 8.257812 -12.320312 8.324219 -10.253906 8.855469 -8.722656 C 9.324219 -7.125 10.121094 -6.058594 11.652344 -6.058594 C 13.785156 -6.058594 14.582031 -8.324219 14.582031 -11.453125 C 14.582031 -13.050781 13.785156 -14.917969 12.71875 -16.847656 C 12.121094 -17.78125 11.519531 -18.777344 10.855469 -19.777344 C 9.457031 -21.777344 7.925781 -24.039062 6.328125 -26.503906 C 4.726562 -28.96875 3.53125 -31.5 2.796875 -34.09375 C 2.398438 -35.359375 2.199219 -36.691406 2.199219 -38.023438 C 2.199219 -40.6875 2.796875 -43.550781 4.328125 -45.75 C 5.859375 -47.878906 8.191406 -49.410156 11.585938 -49.476562 C 15.914062 -49.542969 18.445312 -47.746094 19.84375 -45.148438 C 21.242188 -42.484375 21.640625 -39.222656 21.640625 -36.492188 Z M 14.582031 -35.828125 "/></g></g></g><g fill="rgb(93.728638%, 42.349243%, 0%)" fill-opacity="1"><g transform="translate(152.163809, 272.913213)"><g><path d="M 0.132812 -41.554688 L 0.132812 -48.945312 L 20.910156 -48.945312 L 20.910156 -41.554688 L 14.117188 -41.554688 L 14.117188 0 L 6.925781 0 L 6.925781 -41.554688 Z M 0.132812 -41.554688 "/></g></g></g><g fill="rgb(93.728638%, 42.349243%, 0%)" fill-opacity="1"><g transform="translate(173.2064, 272.913213)"><g><path d="M 2.664062 -48.945312 L 19.113281 -48.945312 L 19.113281 -41.554688 L 9.855469 -41.554688 L 9.855469 -28.703125 L 16.515625 -28.703125 L 16.515625 -20.84375 L 9.855469 -20.84375 L 9.855469 -7.390625 L 19.113281 -7.390625 L 19.113281 0 L 2.664062 0 Z M 2.664062 -48.945312 "/></g></g></g><g fill="rgb(93.728638%, 42.349243%, 0%)" fill-opacity="1"><g transform="translate(193.649671, 272.913213)"><g><path d="M 15.515625 0 L 11.785156 -20.644531 L 9.855469 -20.644531 L 9.855469 0 L 2.664062 0 L 2.664062 -48.945312 L 9.855469 -48.945312 C 18.445312 -48.945312 22.109375 -44.085938 22.109375 -34.828125 C 22.109375 -29.964844 20.84375 -25.570312 18.113281 -23.707031 L 22.707031 0 Z M 9.855469 -27.304688 C 10.855469 -27.304688 12.1875 -27.4375 13.25 -28.367188 C 14.316406 -29.300781 15.183594 -31.097656 15.183594 -34.5625 C 15.183594 -38.023438 14.316406 -39.890625 13.25 -40.820312 C 12.1875 -41.753906 10.855469 -41.820312 9.855469 -41.820312 Z M 9.855469 -27.304688 "/></g></g></g><path fill="rgb(93.728638%, 42.349243%, 0%)" d="M 47.578125 186.300781 C 47.578125 186.300781 50.699219 193.683594 56 193.464844 C 61.296875 193.222656 63.359375 191.324219 63.359375 191.324219 L 61.738281 203.609375 C 61.738281 203.609375 45.957031 204.050781 44.878906 189.761719 C 44.679688 187.042969 47.578125 186.300781 47.578125 186.300781 Z M 47.578125 186.300781 " fill-opacity="1" fill-rule="nonzero"/><g clip-path="url(#id2)"><path fill="rgb(93.728638%, 42.349243%, 0%)" d="M 41.660156 159.828125 C 41.660156 160.859375 41.609375 161.890625 41.507812 162.914062 C 41.40625 163.941406 41.253906 164.960938 41.054688 165.972656 C 40.851562 166.984375 40.601562 167.984375 40.304688 168.972656 C 40.003906 169.957031 39.65625 170.929688 39.261719 171.882812 C 38.867188 172.835938 38.425781 173.765625 37.941406 174.675781 C 37.457031 175.585938 36.925781 176.46875 36.351562 177.324219 C 35.78125 178.183594 35.167969 179.011719 34.511719 179.808594 C 33.859375 180.605469 33.167969 181.371094 32.4375 182.097656 C 31.710938 182.828125 30.945312 183.519531 30.148438 184.175781 C 29.351562 184.828125 28.523438 185.441406 27.667969 186.015625 C 26.8125 186.589844 25.925781 187.117188 25.019531 187.605469 C 24.109375 188.089844 23.179688 188.53125 22.226562 188.925781 C 21.273438 189.320312 20.304688 189.667969 19.316406 189.96875 C 18.332031 190.265625 17.332031 190.515625 16.320312 190.71875 C 15.308594 190.917969 14.289062 191.070312 13.265625 191.171875 C 12.238281 191.273438 11.210938 191.324219 10.179688 191.324219 C 9.148438 191.324219 8.121094 191.273438 7.09375 191.171875 C 6.066406 191.070312 5.046875 190.917969 4.039062 190.71875 C 3.027344 190.515625 2.027344 190.265625 1.039062 189.96875 C 0.0546875 189.667969 -0.914062 189.320312 -1.867188 188.925781 C -2.820312 188.53125 -3.75 188.089844 -4.660156 187.605469 C -5.570312 187.117188 -6.453125 186.589844 -7.308594 186.015625 C -8.167969 185.441406 -8.996094 184.828125 -9.792969 184.175781 C -10.589844 183.519531 -11.351562 182.828125 -12.082031 182.097656 C -12.808594 181.371094 -13.5 180.605469 -14.15625 179.808594 C -14.808594 179.011719 -15.421875 178.183594 -15.996094 177.324219 C -16.566406 176.46875 -17.097656 175.585938 -17.582031 174.675781 C -18.070312 173.765625 -18.511719 172.835938 -18.90625 171.882812 C -19.300781 170.929688 -19.644531 169.957031 -19.945312 168.972656 C -20.246094 167.984375 -20.496094 166.984375 -20.695312 165.972656 C -20.898438 164.960938 -21.046875 163.941406 -21.148438 162.914062 C -21.25 161.890625 -21.300781 160.859375 -21.300781 159.828125 C -21.300781 158.796875 -21.25 157.769531 -21.148438 156.742188 C -21.046875 155.714844 -20.898438 154.695312 -20.695312 153.683594 C -20.496094 152.671875 -20.246094 151.671875 -19.945312 150.6875 C -19.644531 149.699219 -19.300781 148.730469 -18.90625 147.777344 C -18.511719 146.824219 -18.070312 145.890625 -17.582031 144.980469 C -17.097656 144.074219 -16.566406 143.1875 -15.996094 142.332031 C -15.421875 141.472656 -14.808594 140.644531 -14.15625 139.847656 C -13.5 139.050781 -12.808594 138.289062 -12.082031 137.558594 C -11.351562 136.828125 -10.589844 136.136719 -9.792969 135.484375 C -8.996094 134.828125 -8.167969 134.214844 -7.308594 133.640625 C -6.453125 133.070312 -5.570312 132.539062 -4.660156 132.054688 C -3.75 131.566406 -2.820312 131.125 -1.867188 130.730469 C -0.914062 130.335938 0.0546875 129.988281 1.039062 129.691406 C 2.027344 129.390625 3.027344 129.140625 4.039062 128.9375 C 5.046875 128.738281 6.066406 128.585938 7.09375 128.484375 C 8.121094 128.382812 9.148438 128.335938 10.179688 128.335938 C 11.210938 128.335938 12.238281 128.382812 13.265625 128.484375 C 14.289062 128.585938 15.308594 128.738281 16.320312 128.9375 C 17.332031 129.140625 18.332031 129.390625 19.316406 129.691406 C 20.304688 129.988281 21.273438 130.335938 22.226562 130.730469 C 23.179688 131.125 24.109375 131.566406 25.019531 132.054688 C 25.925781 132.539062 26.8125 133.070312 27.667969 133.640625 C 28.523438 134.214844 29.351562 134.828125 30.148438 135.484375 C 30.945312 136.136719 31.710938 136.828125 32.4375 137.558594 C 33.167969 138.289062 33.859375 139.050781 34.511719 139.847656 C 35.167969 140.644531 35.78125 141.472656 36.351562 142.332031 C 36.925781 143.1875 37.457031 144.074219 37.941406 144.980469 C 38.425781 145.890625 38.867188 146.824219 39.261719 147.777344 C 39.65625 148.730469 40.003906 149.699219 40.304688 150.6875 C 40.601562 151.671875 40.851562 152.671875 41.054688 153.683594 C 41.253906 154.695312 41.40625 155.714844 41.507812 156.742188 C 41.609375 157.769531 41.660156 158.796875 41.660156 159.828125 Z M 41.660156 159.828125 " fill-opacity="1" fill-rule="nonzero"/></g><g clip-path="url(#id3)"><path fill="rgb(69.018555%, 74.508667%, 77.249146%)" d="M 10.179688 113.988281 C -15.121094 113.988281 -35.640625 134.515625 -35.640625 159.828125 C -35.640625 185.140625 -15.121094 205.667969 10.179688 205.667969 C 35.480469 205.667969 56 185.140625 56 159.828125 C 56 134.515625 35.480469 113.988281 10.179688 113.988281 Z M 10.179688 122.132812 C 17.117188 122.132812 22.71875 127.753906 22.71875 134.675781 C 22.71875 141.601562 17.097656 147.222656 10.179688 147.222656 C 3.257812 147.222656 -2.359375 141.601562 -2.359375 134.675781 C -2.359375 127.753906 3.238281 122.132812 10.179688 122.132812 Z M 18.359375 158.367188 C 18.359375 159.226562 17.679688 159.910156 16.820312 159.910156 C 15.957031 159.910156 15.277344 159.226562 15.277344 158.367188 C 15.277344 157.507812 15.957031 156.828125 16.820312 156.828125 C 17.679688 156.828125 18.359375 157.507812 18.359375 158.367188 Z M 11.71875 151.703125 C 11.71875 152.566406 11.039062 153.246094 10.179688 153.246094 C 9.320312 153.246094 8.640625 152.566406 8.640625 151.703125 C 8.640625 150.84375 9.320312 150.164062 10.179688 150.164062 C 11.019531 150.164062 11.71875 150.863281 11.71875 151.703125 Z M 5.058594 158.367188 C 5.058594 159.226562 4.378906 159.910156 3.519531 159.910156 C 2.660156 159.910156 1.980469 159.226562 1.980469 158.367188 C 1.980469 157.507812 2.660156 156.828125 3.519531 156.828125 C 4.378906 156.828125 5.058594 157.507812 5.058594 158.367188 Z M -26.179688 152.765625 C -26.179688 145.84375 -20.5625 140.21875 -13.640625 140.21875 C -6.722656 140.21875 -1.101562 145.84375 -1.101562 152.765625 C -1.101562 159.6875 -6.722656 165.3125 -13.640625 165.3125 C -20.5625 165.3125 -26.179688 159.707031 -26.179688 152.765625 Z M -4.902344 192.542969 C -11.820312 192.542969 -17.441406 186.921875 -17.441406 179.996094 C -17.441406 173.074219 -11.820312 167.453125 -4.902344 167.453125 C 2.039062 167.453125 7.640625 173.074219 7.640625 179.996094 C 7.640625 186.921875 2.019531 192.542969 -4.902344 192.542969 Z M 6.679688 158.367188 C 6.679688 156.425781 8.238281 154.867188 10.179688 154.867188 C 12.117188 154.867188 13.679688 156.425781 13.679688 158.367188 C 13.679688 160.308594 12.117188 161.871094 10.179688 161.871094 C 8.238281 161.871094 6.679688 160.289062 6.679688 158.367188 Z M 10.179688 166.550781 C 9.320312 166.550781 8.640625 165.871094 8.640625 165.011719 C 8.640625 164.152344 9.320312 163.46875 10.179688 163.46875 C 11.039062 163.46875 11.71875 164.152344 11.71875 165.011719 C 11.71875 165.871094 11.019531 166.550781 10.179688 166.550781 Z M 25.019531 192.542969 C 18.097656 192.542969 12.480469 186.921875 12.480469 179.996094 C 12.480469 173.074219 18.097656 167.453125 25.019531 167.453125 C 31.957031 167.453125 37.558594 173.074219 37.558594 179.996094 C 37.578125 186.921875 31.957031 192.542969 25.019531 192.542969 Z M 33.980469 165.332031 C 27.058594 165.332031 21.4375 159.707031 21.4375 152.785156 C 21.4375 145.863281 27.058594 140.21875 33.980469 140.21875 C 40.917969 140.21875 46.519531 145.84375 46.519531 152.765625 C 46.519531 159.6875 40.917969 165.332031 33.980469 165.332031 Z M 33.980469 165.332031 " fill-opacity="1" fill-rule="nonzero"/></g><g clip-path="url(#id4)"><path fill="rgb(19.219971%, 19.60907%, 17.649841%)" d="M 10.480469 202.027344 C -12.78125 202.027344 -31.71875 183.097656 -31.71875 159.808594 C -31.71875 136.539062 -12.800781 117.589844 10.480469 117.589844 C 33.738281 117.589844 52.679688 136.519531 52.679688 159.808594 C 52.660156 183.097656 33.738281 202.027344 10.480469 202.027344 Z M 10.480469 119.609375 C -11.679688 119.609375 -29.71875 137.660156 -29.71875 159.828125 C -29.71875 182 -11.679688 200.046875 10.480469 200.046875 C 32.640625 200.046875 50.679688 182 50.679688 159.828125 C 50.660156 137.660156 32.640625 119.609375 10.480469 119.609375 Z M 10.480469 119.609375 " fill-opacity="1" fill-rule="nonzero"/></g><path fill="rgb(93.728638%, 42.349243%, 0%)" d="M 47.578125 370.003906 C 47.578125 370.003906 50.699219 362.621094 56 362.84375 C 61.296875 363.082031 63.359375 364.984375 63.359375 364.984375 L 61.738281 352.699219 C 61.738281 352.699219 45.957031 352.257812 44.878906 366.542969 C 44.679688 369.265625 47.578125 370.003906 47.578125 370.003906 Z M 47.578125 370.003906 " fill-opacity="1" fill-rule="nonzero"/><g clip-path="url(#id5)"><path fill="rgb(93.728638%, 42.349243%, 0%)" d="M 41.660156 396.476562 C 41.660156 395.445312 41.609375 394.417969 41.507812 393.390625 C 41.40625 392.363281 41.253906 391.34375 41.054688 390.332031 C 40.851562 389.320312 40.601562 388.320312 40.304688 387.335938 C 40.003906 386.347656 39.65625 385.378906 39.261719 384.425781 C 38.867188 383.472656 38.425781 382.539062 37.941406 381.632812 C 37.457031 380.722656 36.925781 379.835938 36.351562 378.980469 C 35.78125 378.121094 35.167969 377.296875 34.511719 376.496094 C 33.859375 375.699219 33.167969 374.9375 32.4375 374.207031 C 31.710938 373.476562 30.945312 372.785156 30.148438 372.132812 C 29.351562 371.476562 28.523438 370.863281 27.667969 370.289062 C 26.8125 369.71875 25.925781 369.1875 25.019531 368.703125 C 24.109375 368.214844 23.179688 367.773438 22.226562 367.378906 C 21.273438 366.984375 20.304688 366.636719 19.316406 366.339844 C 18.332031 366.039062 17.332031 365.789062 16.320312 365.589844 C 15.308594 365.386719 14.289062 365.234375 13.265625 365.132812 C 12.238281 365.035156 11.210938 364.984375 10.179688 364.984375 C 9.148438 364.984375 8.121094 365.035156 7.09375 365.132812 C 6.066406 365.234375 5.046875 365.386719 4.039062 365.589844 C 3.027344 365.789062 2.027344 366.039062 1.039062 366.339844 C 0.0546875 366.636719 -0.914062 366.984375 -1.867188 367.378906 C -2.820312 367.773438 -3.75 368.214844 -4.660156 368.703125 C -5.570312 369.1875 -6.453125 369.71875 -7.308594 370.289062 C -8.167969 370.863281 -8.996094 371.476562 -9.792969 372.132812 C -10.589844 372.785156 -11.351562 373.476562 -12.082031 374.207031 C -12.808594 374.9375 -13.5 375.699219 -14.15625 376.496094 C -14.808594 377.296875 -15.421875 378.121094 -15.996094 378.980469 C -16.566406 379.835938 -17.097656 380.722656 -17.582031 381.632812 C -18.070312 382.539062 -18.511719 383.472656 -18.90625 384.425781 C -19.300781 385.378906 -19.644531 386.347656 -19.945312 387.335938 C -20.246094 388.320312 -20.496094 389.320312 -20.695312 390.332031 C -20.898438 391.34375 -21.046875 392.363281 -21.148438 393.390625 C -21.25 394.417969 -21.300781 395.445312 -21.300781 396.476562 C -21.300781 397.507812 -21.25 398.539062 -21.148438 399.566406 C -21.046875 400.589844 -20.898438 401.609375 -20.695312 402.621094 C -20.496094 403.632812 -20.246094 404.632812 -19.945312 405.621094 C -19.644531 406.605469 -19.300781 407.578125 -18.90625 408.53125 C -18.511719 409.484375 -18.070312 410.414062 -17.582031 411.324219 C -17.097656 412.234375 -16.566406 413.117188 -15.996094 413.976562 C -15.421875 414.832031 -14.808594 415.660156 -14.15625 416.457031 C -13.5 417.253906 -12.808594 418.019531 -12.082031 418.746094 C -11.351562 419.476562 -10.589844 420.167969 -9.792969 420.824219 C -8.996094 421.476562 -8.167969 422.089844 -7.308594 422.664062 C -6.453125 423.238281 -5.570312 423.765625 -4.660156 424.253906 C -3.75 424.738281 -2.820312 425.179688 -1.867188 425.574219 C -0.914062 425.96875 0.0546875 426.316406 1.039062 426.617188 C 2.027344 426.914062 3.027344 427.164062 4.039062 427.367188 C 5.046875 427.566406 6.066406 427.71875 7.09375 427.820312 C 8.121094 427.921875 9.148438 427.972656 10.179688 427.972656 C 11.210938 427.972656 12.238281 427.921875 13.265625 427.820312 C 14.289062 427.71875 15.308594 427.566406 16.320312 427.367188 C 17.332031 427.164062 18.332031 426.914062 19.316406 426.617188 C 20.304688 426.316406 21.273438 425.96875 22.226562 425.574219 C 23.179688 425.179688 24.109375 424.738281 25.019531 424.253906 C 25.925781 423.765625 26.8125 423.238281 27.667969 422.664062 C 28.523438 422.089844 29.351562 421.476562 30.148438 420.824219 C 30.945312 420.167969 31.710938 419.476562 32.4375 418.746094 C 33.167969 418.019531 33.859375 417.253906 34.511719 416.457031 C 35.167969 415.660156 35.78125 414.832031 36.351562 413.976562 C 36.925781 413.117188 37.457031 412.234375 37.941406 411.324219 C 38.425781 410.414062 38.867188 409.484375 39.261719 408.53125 C 39.65625 407.578125 40.003906 406.605469 40.304688 405.621094 C 40.601562 404.632812 40.851562 403.632812 41.054688 402.621094 C 41.253906 401.609375 41.40625 400.589844 41.507812 399.566406 C 41.609375 398.539062 41.660156 397.507812 41.660156 396.476562 Z M 41.660156 396.476562 " fill-opacity="1" fill-rule="nonzero"/></g><g clip-path="url(#id6)"><path fill="rgb(69.018555%, 74.508667%, 77.249146%)" d="M 10.179688 442.320312 C -15.121094 442.320312 -35.640625 421.789062 -35.640625 396.476562 C -35.640625 371.164062 -15.121094 350.636719 10.179688 350.636719 C 35.480469 350.636719 56 371.164062 56 396.476562 C 56 421.789062 35.480469 442.320312 10.179688 442.320312 Z M 10.179688 434.175781 C 17.117188 434.175781 22.71875 428.550781 22.71875 421.628906 C 22.71875 414.707031 17.097656 409.082031 10.179688 409.082031 C 3.257812 409.082031 -2.359375 414.707031 -2.359375 421.628906 C -2.359375 428.550781 3.238281 434.175781 10.179688 434.175781 Z M 18.359375 397.9375 C 18.359375 397.078125 17.679688 396.398438 16.820312 396.398438 C 15.957031 396.398438 15.277344 397.078125 15.277344 397.9375 C 15.277344 398.796875 15.957031 399.480469 16.820312 399.480469 C 17.679688 399.480469 18.359375 398.796875 18.359375 397.9375 Z M 11.71875 404.601562 C 11.71875 403.742188 11.039062 403.0625 10.179688 403.0625 C 9.320312 403.0625 8.640625 403.742188 8.640625 404.601562 C 8.640625 405.460938 9.320312 406.140625 10.179688 406.140625 C 11.019531 406.140625 11.71875 405.441406 11.71875 404.601562 Z M 5.058594 397.9375 C 5.058594 397.078125 4.378906 396.398438 3.519531 396.398438 C 2.660156 396.398438 1.980469 397.078125 1.980469 397.9375 C 1.980469 398.796875 2.660156 399.480469 3.519531 399.480469 C 4.378906 399.480469 5.058594 398.796875 5.058594 397.9375 Z M -26.179688 403.539062 C -26.179688 410.464844 -20.5625 416.085938 -13.640625 416.085938 C -6.722656 416.085938 -1.101562 410.464844 -1.101562 403.539062 C -1.101562 396.617188 -6.722656 390.996094 -13.640625 390.996094 C -20.5625 390.996094 -26.179688 396.597656 -26.179688 403.539062 Z M -4.902344 363.761719 C -11.820312 363.761719 -17.441406 369.386719 -17.441406 376.308594 C -17.441406 383.230469 -11.820312 388.855469 -4.902344 388.855469 C 2.039062 388.855469 7.640625 383.230469 7.640625 376.308594 C 7.640625 369.386719 2.019531 363.761719 -4.902344 363.761719 Z M 6.679688 397.9375 C 6.679688 399.878906 8.238281 401.441406 10.179688 401.441406 C 12.117188 401.441406 13.679688 399.878906 13.679688 397.9375 C 13.679688 395.996094 12.117188 394.4375 10.179688 394.4375 C 8.238281 394.4375 6.679688 396.015625 6.679688 397.9375 Z M 10.179688 389.753906 C 9.320312 389.753906 8.640625 390.433594 8.640625 391.296875 C 8.640625 392.15625 9.320312 392.835938 10.179688 392.835938 C 11.039062 392.835938 11.71875 392.15625 11.71875 391.296875 C 11.71875 390.433594 11.019531 389.753906 10.179688 389.753906 Z M 25.019531 363.761719 C 18.097656 363.761719 12.480469 369.386719 12.480469 376.308594 C 12.480469 383.230469 18.097656 388.855469 25.019531 388.855469 C 31.957031 388.855469 37.558594 383.230469 37.558594 376.308594 C 37.578125 369.386719 31.957031 363.761719 25.019531 363.761719 Z M 33.980469 390.976562 C 27.058594 390.976562 21.4375 396.597656 21.4375 403.519531 C 21.4375 410.445312 27.058594 416.085938 33.980469 416.085938 C 40.917969 416.085938 46.519531 410.464844 46.519531 403.539062 C 46.519531 396.617188 40.917969 390.976562 33.980469 390.976562 Z M 33.980469 390.976562 " fill-opacity="1" fill-rule="nonzero"/></g><g clip-path="url(#id7)"><path fill="rgb(19.219971%, 19.60907%, 17.649841%)" d="M 10.480469 354.277344 C -12.78125 354.277344 -31.71875 373.207031 -31.71875 396.496094 C -31.71875 419.769531 -12.800781 438.71875 10.480469 438.71875 C 33.738281 438.71875 52.679688 419.789062 52.679688 396.496094 C 52.660156 373.207031 33.738281 354.277344 10.480469 354.277344 Z M 10.480469 436.695312 C -11.679688 436.695312 -29.71875 418.648438 -29.71875 396.476562 C -29.71875 374.308594 -11.679688 356.257812 10.480469 356.257812 C 32.640625 356.257812 50.679688 374.308594 50.679688 396.476562 C 50.660156 418.648438 32.640625 436.695312 10.480469 436.695312 Z M 10.480469 436.695312 " fill-opacity="1" fill-rule="nonzero"/></g><g clip-path="url(#id8)"><g clip-path="url(#id9)"><g clip-path="url(#id10)"><path fill="rgb(93.728638%, 42.349243%, 0%)" d="M -16.722656 28.683594 L -9.269531 29.875 L -10.457031 37.332031 L -17.914062 36.140625 L -22.679688 65.960938 L -15.222656 67.152344 L -16.414062 74.605469 L -23.867188 73.417969 L -25.058594 80.871094 L 42.035156 91.589844 L 43.226562 84.132812 L 35.773438 82.945312 L 36.964844 75.488281 L 44.417969 76.679688 L 49.183594 46.859375 L 41.726562 45.667969 L 42.917969 38.210938 L 50.375 39.402344 L 51.566406 31.949219 L -15.53125 21.230469 Z M 29.507812 74.296875 L 28.316406 81.753906 L 20.863281 80.5625 L 22.054688 73.105469 Z M 14.597656 71.914062 L 13.40625 79.371094 L 5.953125 78.179688 L 7.144531 70.726562 Z M -0.3125 69.535156 L -1.503906 76.988281 L -8.957031 75.796875 L -7.765625 68.34375 Z M 35.464844 37.023438 L 34.273438 44.476562 L 26.816406 43.285156 L 28.007812 35.832031 Z M 20.554688 34.640625 L 19.363281 42.09375 L 11.90625 40.902344 L 13.097656 33.449219 Z M 5.644531 32.257812 L 4.453125 39.714844 L -3.003906 38.523438 L -1.8125 31.066406 Z M 5.644531 32.257812 " fill-opacity="1" fill-rule="nonzero"/></g></g></g><g clip-path="url(#id11)"><g clip-path="url(#id12)"><g clip-path="url(#id13)"><path fill="rgb(93.728638%, 42.349243%, 0%)" d="M -22.773438 258.480469 L -15.308594 257.367188 L -14.191406 264.832031 L -21.660156 265.949219 L -17.195312 295.816406 L -9.730469 294.699219 L -8.613281 302.167969 L -16.078125 303.28125 L -14.964844 310.75 L 52.238281 300.707031 L 51.121094 293.238281 L 43.65625 294.355469 L 42.539062 286.886719 L 50.003906 285.773438 L 45.542969 255.90625 L 38.074219 257.019531 L 36.960938 249.554688 L 44.425781 248.4375 L 43.3125 240.972656 L -23.890625 251.015625 Z M 35.070312 288.003906 L 36.1875 295.472656 L 28.722656 296.585938 L 27.605469 289.121094 Z M 20.136719 290.234375 L 21.253906 297.703125 L 13.789062 298.820312 L 12.671875 291.351562 Z M 5.203125 292.46875 L 6.320312 299.933594 L -1.144531 301.050781 L -2.261719 293.582031 Z M 29.492188 250.671875 L 30.609375 258.136719 L 23.140625 259.253906 L 22.027344 251.785156 Z M 14.558594 252.902344 L 15.675781 260.367188 L 8.207031 261.484375 L 7.09375 254.019531 Z M -0.375 255.132812 L 0.742188 262.601562 L -6.726562 263.714844 L -7.839844 256.25 Z M -0.375 255.132812 " fill-opacity="1" fill-rule="nonzero"/></g></g></g></svg>